<svg xmlns="http://www.w3.org/2000/svg" fill="none" viewBox="0 0 312 49">

  <g clip-path="url(#clip0)">
    <path fill="#222" fill-rule="evenodd" d="M304.754 33.3999c-4.315.02-7.18-1.568-7.941-4.373-.06-.227.102-.457.348-.514l3.699-.843c.113-.0235.23-.0069.331.047.102.0539.181.1416.225.248.5 1.25 1.897 1.95 3.915 1.942 1.636-.005 2.652-.556 2.646-1.428-.006-1.176-1.798-1.687-3.879-2.277-3.034-.863-6.81-1.937-6.828-5.682-.021-3.793 3.893-5.506 7.778-5.52 1.937-.008 6.423.423 7.175 4.512.039.216-.127.434-.355.486l-3.476.775c-.116.026-.237.0082-.34-.05-.104-.0581-.182-.1526-.22-.265-.43-1.298-1.527-1.951-3.27-1.943-1.198.006-2.475.392-2.47 1.457.007 1.235 1.862 1.769 4.009 2.388 2.976.858 6.68 1.925 6.699 5.466.018 3.314-3.217 5.554-8.046 5.574zm-24.672-.442L280 15.4999c0-.247.195-.447.435-.447l11.043-.053c.058.0001.115.0117.169.034.053.0222.102.0548.143.0959.04.041.073.0897.095.1433.022.0535.033.1109.033.1688l.011 2.665c.001.0579-.01.1154-.031.1692-.021.0538-.053.1028-.093.1444-.041.0415-.089.0746-.142.0975-.053.0229-.11.0351-.168.0359l-6.623.032c-.117.0021-.228.0503-.309.134-.081.0838-.126.1963-.125.313l.016 3.104c0 .0578.011.1151.033.1686.022.0534.055.102.096.1428.04.0409.089.0733.142.0954.054.0221.111.0333.169.0332l4.692-.02c.117.0005.228.0473.31.1299.082.0827.128.1946.128.3111l.011 2.499c.001.058-.009.1155-.03.1695-.022.0539-.053.1031-.094.1446-.04.0416-.088.0748-.141.0976-.054.0228-.111.0348-.169.0353l-4.692.023c-.24 0-.435.2-.435.445l.012 2.969c0 .1173.046.2298.128.3132.083.0834.195.1308.312.1318l6.622-.032c.058.0001.115.0117.168.034.054.0223.102.0549.143.096.041.0411.073.0898.095.1433.021.0536.032.1109.032.1687l.014 2.664c0 .1171-.046.2296-.127.3132-.082.0837-.194.1317-.311.1338l-11.043.052c-.058 0-.115-.0114-.168-.0337-.054-.0223-.102-.0549-.143-.096-.04-.0412-.073-.0899-.094-.1435-.022-.0536-.033-.111-.032-.1688v.001zm-14.821.192l-8.415-17.414c-.034-.0706-.049-.1486-.044-.2266.006-.0781.03-.1535.073-.2192.042-.0657.101-.1195.17-.1563s.146-.0553.224-.0539l3.596-.017c.187 0 .354.107.432.27l4.232 9.085c.048.099.123.1824.216.2405.094.0581.202.0885.312.0877.109-.0009.217-.0329.309-.0924.093-.0595.167-.1441.213-.2438l4.097-9.12c.038-.0819.099-.1512.175-.1996.076-.0484.165-.0739.255-.0734l3.621-.017c.078-.002.155.0159.225.052.069.0361.128.0894.171.1546.043.0652.069.1404.075.2183.006.0779-.008.1561-.041.2271l-8.304 17.492c-.037.0752-.095.1386-.166.1832-.071.0447-.153.0688-.237.0698l-.783.003c-.084.0006-.167-.0226-.239-.0668-.072-.0442-.13-.1077-.167-.1832zm-18.061-.176v-17.524c0-.248.124-.449.387-.449h3.85c.26 0 .56.198.563.446v17.508c0 .248-.21.446-.474.446h-3.85c-.26.003-.476-.181-.476-.426v-.001zm-15.19-8.822v2.957c0 .157.128.284.288.284h3.698c.186 0 .33.18.276.36-.534 1.814-1.863 2.702-4.038 2.702-4.31 0-5.216-3.17-5.216-5.827 0-3.775 1.83-5.854 5.158-5.854 1.328 0 2.35.351 3.017 1 .119.117.301.125.417.006l2.547-2.623c.028-.0275.05-.0604.065-.0968.014-.0364.021-.0754.02-.1146-.001-.0392-.01-.0777-.026-.1133-.017-.0355-.041-.0673-.07-.0933-1.332-1.136-3.322-1.739-5.886-1.739-6.266 0-9.86 3.537-9.86 9.709 0 6.033 3.478 9.491 9.547 9.491 3.214 0 8.635-1.113 8.827-8.581l.026-1.461c.001-.0379-.006-.0756-.02-.111-.014-.0353-.034-.0675-.061-.0948-.026-.0272-.058-.0489-.093-.0639-.035-.015-.072-.0229-.11-.0233h-8.218c-.16 0-.288.13-.288.287zm-29.723 8.806l-.222-7.486c-.011-.416-.533-.597-.804-.281l-4.482 5.197c-.043.0499-.097.0899-.157.1172-.06.0272-.126.0412-.192.0408h-.28c-.067 0-.133-.0146-.193-.0428-.061-.0281-.115-.0691-.158-.1202l-4.26-5.16c-.268-.327-.799-.147-.81.272l-.242 7.463c-.004.1184-.054.2307-.139.3132-.085.0824-.199.1286-.317.1288h-3.175c-.061.0002-.121-.0119-.177-.0355-.057-.0236-.108-.0583-.15-.102-.043-.0436-.076-.0954-.098-.1521-.022-.0568-.033-.1175-.031-.1784l.514-17.49c.004-.1187.054-.2311.14-.3135.085-.0825.199-.1286.318-.1285h.738c.142 0 .274.066.36.175l7.568 9.657c.043.0549.098.0993.161.1298.062.0305.131.0464.201.0464s.139-.0159.201-.0464c.063-.0305.118-.0749.161-.1298l7.567-9.657c.043-.0541.098-.0978.16-.1281.063-.0303.131-.0463.2-.0469h.739c.248 0 .45.195.458.442l.514 17.49c.002.0609-.009.1216-.031.1784-.022.0567-.055.1085-.098.1521-.042.0437-.093.0784-.15.102-.056.0236-.116.0357-.177.0355h-3.198c-.119.0003-.233-.0456-.319-.1281-.086-.0825-.136-.195-.14-.3139zm-27.024-5.998l-1.74-3.625c-.038-.0771-.097-.1421-.17-.1873-.073-.0452-.157-.0688-.243-.0682-.086.0006-.17.0255-.242.0718-.073.0463-.13.112-.167.1897l-1.668 3.625c-.031.0689-.045.1447-.039.2202.005.0756.03.1485.071.2121.041.0635.098.1156.165.1514.067.0358.141.0541.217.0533h3.408c.076.0002.151-.0189.217-.0553.067-.0365.123-.0892.164-.1533.041-.0641.064-.1374.069-.2132.005-.0758-.01-.1515-.042-.2202v-.001zm2.944 6.185l-.96-2.014c-.037-.0772-.096-.1422-.169-.1874-.073-.0451-.157-.0686-.243-.0676h-7.316c-.087-.0001-.171.0247-.244.0716-.073.0468-.131.1136-.167.1924l-.91 1.996c-.036.0791-.094.146-.168.1929-.073.0468-.158.0715-.245.0711h-3.33c-.076.0009-.151-.0176-.218-.0537-.067-.036-.123-.0886-.164-.1526-.041-.064-.066-.1374-.07-.2133-.005-.0759.009-.1517.042-.2204l8.36-17.502c.037-.0775.094-.1429.167-.1886.072-.0457.156-.0698.242-.0694h.579c.17 0 .33.1.405.252l8.555 17.506c.033.0683.049.1441.045.22-.004.076-.028.1497-.068.214-.041.0643-.097.1172-.164.1536-.067.0364-.142.0552-.218.0544h-3.332c-.085.0001-.169-.0238-.241-.0689-.072-.0451-.131-.1095-.168-.1861zm-23.479-.197v-6.5c0-.247-.2-.452-.45-.452h-6.954c-.249 0-.45.205-.45.452v6.5c0 .25-.2.452-.449.452h-3.576c-.119-.0005-.234-.0484-.318-.1331-.084-.0848-.131-.1994-.131-.3189v-17.494c0-.25.203-.454.452-.454h3.573c.25 0 .45.204.45.452v6.5c0 .25.2.449.45.449h6.954c.249 0 .449-.199.449-.449v-6.5c0-.248.2-.452.45-.452h3.575c.119.0008.233.0488.317.1336.084.0847.131.1992.13.3184v17.496c0 .25-.2.452-.447.452h-3.575c-.059 0-.118-.0117-.173-.0344-.054-.0228-.104-.0561-.146-.0981-.042-.042-.075-.0918-.097-.1467-.023-.0548-.034-.1135-.034-.1728zm-28.624.003v-13.947c-.002-.1205-.052-.2351-.139-.3188-.087-.0836-.203-.1293-.324-.1272h-5.177c-.121.0019-.238-.0443-.325-.1285-.087-.0842-.137-.1995-.139-.3205v-2.657c0-.25.208-.452.464-.452h15.872c.256 0 .464.201.464.452v2.657c-.002.121-.052.2363-.139.3205-.087.0842-.204.1304-.325.1285h-5.15c-.06-.0012-.119.0094-.175.0312-.055.0218-.106.0543-.149.0957-.043.0414-.078.0909-.102.1457-.024.0547-.037.1137-.038.1734v13.946c-.002.121-.052.2363-.139.3205-.087.0842-.204.1304-.325.1285h-3.69c-.121.0019-.238-.0443-.325-.1285-.087-.0842-.137-.1995-.139-.3205" clip-rule="evenodd"/>
    <mask id="a" width="20" height="20" x="98" y="15" maskUnits="userSpaceOnUse">
      <path fill="#fff" d="M98.48 15.0779h18.98v19.121H98.48v-19.121z"/>
    </mask>
    <g mask="url(#a)">
      <path fill="#222" fill-rule="evenodd" d="M107.958 18.6999c-3.202 0-4.823 1.952-4.823 5.804 0 3.898 1.69 6.046 4.762 6.046 3.12 0 4.91-2.223 4.91-6.101 0-3.762-1.677-5.748-4.85-5.748l.001-.001zm-.117 15.499c-5.862 0-9.36-3.623-9.36-9.695-.001-6.078 3.355-9.427 9.447-9.427 6.058 0 9.533 3.395 9.533 9.317 0 6.049-3.687 9.805-9.62 9.805z" clip-rule="evenodd"/>
    </g>
    <path fill="#222" fill-rule="evenodd" d="M85.402 24.152v2.957c0 .157.124.284.28.284h3.619c.181 0 .323.18.272.36-.525 1.814-1.825 2.702-3.953 2.702-4.217 0-5.102-3.17-5.102-5.827 0-3.775 1.79-5.854 5.045-5.854 1.3 0 2.299.351 2.952 1 .116.117.295.125.408.006l2.495-2.623c.0268-.0283.0477-.0616.0615-.098s.0201-.0752.0187-.1141c-.0014-.039-.0105-.0772-.0269-.1126-.0163-.0353-.0395-.067-.0683-.0933C90.101 15.603 88.154 15 85.646 15 79.516 15 76 18.537 76 24.709c0 6.033 3.402 9.491 9.34 9.491 3.143 0 8.447-1.113 8.634-8.581L94 24.158c.0012-.0375-.0051-.075-.0184-.1101-.0134-.0351-.0336-.0672-.0594-.0944-.0259-.0273-.0569-.0491-.0913-.0643-.0343-.0152-.0713-.0234-.1089-.0242h-8.04c-.156 0-.28.13-.28.287zM24.568 49.0889c4.613 0 8.928-1.268 12.617-3.47v-16.053h2.01v14.714c.6984-.5177 1.3693-1.0714 2.01-1.659v-13.054h2.01v10.983c.729-.846 1.4-1.74 2.01-2.682v-10.303H24.326v2.002h10.848v4.983c-1.3777 1.4359-3.0318 2.5782-4.8626 3.3581-1.8308.7799-3.8004 1.1812-5.7904 1.1799-8.04 0-14.538-6.476-14.538-14.486 0-8.011 6.499-14.554 14.538-14.554 3.563 0 6.856 1.297 9.404 3.45l1.46-1.458c-3.0045-2.5801-6.8347-3.99721-10.795-3.99399-9.18 0-16.55 7.40999-16.55 16.55599s7.37 16.488 16.55 16.488c4.02 0 7.704-1.402 10.586-3.738v2.47c-3.1182 2.1326-6.8083 3.2725-10.586 3.27-10.25 0-18.56-8.276-18.56-18.491 0-10.214 8.31-18.55999 18.56-18.55999 4.668 0 8.93 1.722 12.208 4.59299l1.438-1.43299c-3.764-3.3327-8.6196-5.16901-13.647-5.161-11.39 0-20.57 9.21199-20.57 20.56199 0 11.35 9.18 20.494 20.57 20.494 3.886 0 7.503-1.067 10.586-2.87v2.27c-3.217 1.67-6.767 2.605-10.586 2.605-12.53 0-22.58-10.016-22.58-22.5-.00554-2.966.57489-5.9039 1.70796-8.645 1.13307-2.7411 2.79647-5.2314 4.89466-7.32782 2.09818-2.09642 4.58988-3.75772 7.33188-4.88849 2.7421-1.13076 5.6805-1.70872 8.6465-1.70068 5.5594.00458 10.925 2.04304 15.085 5.731l1.404-1.401C36.7 2.45491 30.929.0349121 24.589.0349121 10.988.0349121 0 11.0499 0 24.6019c0 2.328.326 4.581.931 6.713 2.929 10.26 12.402 17.775 23.637 17.775" clip-rule="evenodd"/>
    <path fill="#222" fill-rule="evenodd" d="M24.43 25.3708h20.989v-1.97h-20.99l.001 1.97zm0-3.778h20.989v-1.97h-20.99l.001 1.97z" clip-rule="evenodd"/>
  </g>
  <defs>
    <clipPath id="clip0">
      <path fill="#fff" d="M0 0h313v50H0z" transform="translate(-1 -1)"/>
    </clipPath>
  </defs>
</svg>
