<svg width="174" height="32" viewBox="0 0 174 32" fill="none" xmlns="http://www.w3.org/2000/svg">
<g clip-path="url(#clip0_5469_908)">
<path d="M98.5273 9.71465L98.4231 8.79478L98.2362 8.56481L99.0052 8.47857L99.2387 8.58996L100.058 8.21267L99.0986 8.0905L98.9405 8.27735L97.8948 8.40311C94.9376 -0.425528 88.1284 0.530279 88.1284 0.530279L87.9739 0.645263L88.193 0.674009L88.4661 6.41963L87.9487 6.08186C87.9487 6.08186 87.8517 6.15014 87.6864 6.08186C87.4313 5.97407 86.6839 5.81956 86.1844 5.88783C85.9365 5.92376 85.4047 6.09264 85.3436 6.42322C85.3436 6.42322 85.8359 6.29027 86.1161 6.43041C86.3677 6.55618 86.8096 6.71069 87.151 6.55977C87.4888 6.40885 87.5463 6.4915 87.5463 6.4915L87.4636 6.69631L86.2239 7.41856L87.0396 8.29891L87.6253 9.31221L84.607 9.4236C84.607 9.4236 84.183 9.39485 83.9099 10.0129C83.9099 10.0129 83.6476 10.1782 83.5829 10.3004C83.511 10.4225 83.4463 10.8178 83.8811 10.9687C84.3231 11.1196 84.4956 11.213 84.4956 11.213C84.4956 11.213 85.6993 11.6658 86.2383 11.7772C86.7701 11.885 87.8804 12.2263 87.8804 12.2263L89.8495 14.4613C89.8495 14.4613 89.9466 15.1584 90.0795 15.3489L90.2161 15.7298L89.5333 16.9371C89.5333 16.9371 88.2757 17.7312 87.8804 18.3061C87.478 18.8811 86.2239 20.8502 86.2239 20.8502C86.2239 20.8502 86.0874 21.0945 86.1305 21.2167C86.1736 21.3424 86.2778 21.576 86.2778 21.576L86.6479 22.0826L87.0612 22.2443C87.0612 22.2443 87.4456 22.2192 87.6505 22.4923L89.3501 23.3654L90.4676 24.2027L90.7407 24.6806L90.7263 24.8459L90.3993 25.6903L90.0436 25.8843L89.7274 25.9382C89.7274 25.9382 89.616 25.9238 89.6303 26.1287L89.616 26.3874C89.616 26.3874 89.8352 26.5095 89.9861 26.5095C90.137 26.5095 90.5323 26.4269 90.5323 26.4269L91.2186 26.3083C91.2186 26.3083 91.3695 26.2113 91.4521 26.0352C91.4521 26.0352 91.7252 25.6543 92.0378 25.6543L92.354 26.5814L92.6271 28.281L92.5732 30.1136L92.8176 30.6777C92.8176 30.6777 92.9865 30.9221 93.2703 30.9221H94.2261C94.2261 30.9221 94.5819 30.8143 94.5459 30.2932L94.5244 29.5387L94.0608 28.2918L94.104 27.8822L93.777 26.2939L93.5973 23.3942C93.5973 23.3942 93.5003 22.5462 93.1338 22.23L92.9505 21.7377V20.958L93.5542 19.9734C93.5542 19.9734 93.9423 19.3122 94.1543 18.8559L94.3411 18.4355L94.5711 17.3072L94.4417 16.8652L97.3055 20.2537L97.1942 20.4477L97.4493 20.5016C97.4493 20.5016 101.535 14.8818 98.4374 9.7973L98.5201 9.71106L98.5273 9.71465ZM90.9563 21.0334L90.8557 21.3568L90.7299 21.9353L90.2268 21.6119L89.2602 20.9831L88.9872 20.6921C88.9872 20.6921 90.9024 19.3554 91.1144 19.032L91.1647 19.226C91.1647 19.226 90.9203 20.6418 90.9563 21.0298M92.1636 9.01037C92.1636 9.01037 91.7935 8.62589 91.3731 8.60793C90.9563 8.59355 90.1981 9.09302 90.1981 9.09302L90.1478 8.96366C90.1478 8.96366 90.2125 8.75525 90.2268 8.68698C90.2448 8.6223 90.1837 8.33125 90.1837 8.33125C91.6641 8.16955 91.5384 7.7168 91.5384 7.7168L90.1011 7.21734L89.3932 6.53821L88.7464 6.43041L88.4122 0.695569C88.4122 0.695569 95.0741 0.490753 97.2373 8.45701L92.16 9.00318L92.1636 9.01037ZM92.4043 9.20081L97.1151 8.66901L97.1007 8.64386L96.8923 8.77322L93.4751 9.46672L92.4079 9.20081H92.4043ZM97.4241 20.0381L94.4058 16.4269L93.8884 15.3668C93.8884 15.3668 93.9207 14.2853 93.9063 14.1236C93.8884 13.9619 93.6476 13.2864 93.6189 13.1067C93.5829 12.927 93.5686 11.7987 93.5686 11.7987L93.4536 11.2669L94.9053 11.0729C94.9053 11.0729 95.1316 11.0262 95.5017 10.5231L96.9858 10.0596L97.7619 10.0273C97.7619 10.0273 100.791 14.0014 97.4241 20.0345" fill="#002F6C"/>
<path d="M104.097 29.0607V2.2155H108.707V13.1462H113.615V2.2155H118.225V29.0607H113.615V17.1599H108.707V29.0607H104.097ZM127.298 8.83428C127.298 6.82565 127.891 5.85906 129.753 5.85906C131.614 5.85906 132.207 6.82565 132.207 8.83428V22.4455C132.207 24.4542 131.61 25.4208 129.753 25.4208C127.895 25.4208 127.298 24.4542 127.298 22.4455V8.83428ZM122.685 22.5569C122.685 26.3478 124.916 29.4344 129.749 29.4344C134.582 29.4344 136.813 26.3478 136.813 22.5569V8.72289C136.813 4.92841 134.582 1.8418 129.749 1.8418C124.916 1.8418 122.685 4.92841 122.685 8.72289V22.5569ZM145.89 8.83428C145.89 6.82565 146.483 5.85906 148.344 5.85906C150.206 5.85906 150.798 6.82565 150.798 8.83428V22.4455C150.798 24.4542 150.202 25.4208 148.344 25.4208C146.486 25.4208 145.89 24.4542 145.89 22.4455V8.83428ZM141.28 22.5569C141.28 26.3478 143.511 29.4344 148.344 29.4344C153.177 29.4344 155.409 26.3478 155.409 22.5569V8.72289C155.409 4.92841 153.177 1.8418 148.344 1.8418C143.511 1.8418 141.28 4.92841 141.28 8.72289V22.5569ZM164.482 6.00998H166.081C168.535 6.00998 169.39 6.94063 169.39 9.76493V21.5149C169.39 24.3392 168.535 25.2698 166.081 25.2698H164.482V6.00638V6.00998ZM159.871 29.0643H166.713C171.47 29.0643 174 26.4628 174 20.9579V10.3219C174 4.82061 171.47 2.2155 166.713 2.2155H159.871V29.0607V29.0643Z" fill="#BDE724"/>
<path d="M22.7129 8.60088C22.7129 6.59225 23.3058 5.62566 25.1671 5.62566C27.0284 5.62566 27.6213 6.59225 27.6213 8.60088V22.2121C27.6213 24.2208 27.0284 25.1874 25.1671 25.1874C23.3058 25.1874 22.7129 24.2208 22.7129 22.2121V8.60088ZM18.1028 22.3235C18.1028 26.1144 20.3342 29.201 25.1671 29.201C30.0001 29.201 32.2315 26.1144 32.2315 22.3235V8.48949C32.2315 4.69501 30.0001 1.6084 25.1671 1.6084C20.3342 1.6084 18.1028 4.69501 18.1028 8.48949V22.3235ZM41.3045 16.7827H42.7921C45.5445 16.7827 46.583 18.159 46.583 20.9114C46.583 23.6638 45.6918 25.04 43.2376 25.04H41.3045V16.7863V16.7827ZM41.3045 5.77658H43.0544C45.0989 5.77658 46.0655 7.07734 46.0655 9.57106C46.0655 11.8025 44.7288 12.9918 42.9825 12.9918H41.3081V5.77299L41.3045 5.77658ZM36.6943 28.8309H43.985C49.2276 28.8309 51.2003 25.4856 51.2003 21.0587C51.2003 17.602 49.8241 15.7443 47.4813 14.7022C49.7127 13.8111 50.6793 11.3928 50.6793 9.08597C50.6793 4.51175 48.4874 1.98569 43.5395 1.98569H36.6979V28.8309H36.6943ZM55.9182 1.9821H60.5284V28.8273H55.9182V1.9821ZM65.6236 28.8273V1.9821H69.8996L75.5123 17.3397H75.5877V1.9821H79.7523V28.8273H75.7387L69.8637 12.0576H69.7918V28.8273H65.6272H65.6236Z" fill="#BDE724"/>
<path d="M4.61015 5.78698H6.24868C8.73881 5.78698 9.66946 6.71764 9.66946 9.91564C9.66946 13.1136 8.73881 14.0443 6.24868 14.0443H4.61015V5.78698ZM4.61015 17.8352C5.42942 17.8352 6.396 17.7957 6.98889 17.7238L10.2623 28.8413H14.948L11.0457 16.6817C12.6052 15.9775 14.2796 14.2276 14.2796 9.91564C14.2796 4.18798 11.6386 1.99609 6.47146 1.99609H0V28.8413H4.61015V17.8352Z" fill="#BDE724"/>
</g>
<defs>
<clipPath id="clip0_5469_908">
<rect width="174" height="31" fill="white" transform="translate(0 0.5)"/>
</clipPath>
</defs>
</svg>
